<svg width="67" height="23" viewBox="0 0 67 23" fill="none" xmlns="http://www.w3.org/2000/svg">
<path d="M67 0L17.9835 20.4676C13.9188 22.154 10.5046 23 7.74362 23C4.61693 23 2.34729 21.9268 0.940279 19.7776C0.0553141 18.3978 -0.204313 16.6484 0.158606 14.5266C0.521526 12.4048 1.48745 10.1462 3.0508 7.74241C4.35451 5.7986 6.49016 3.24426 9.4633 0.0766572C8.45485 1.63353 7.71535 3.34297 7.27462 5.13605C6.49295 8.40769 7.19645 10.8087 9.38514 12.3419C10.4264 13.0564 11.8586 13.4151 13.6843 13.4151C15.1416 13.4151 16.7831 13.1851 18.6089 12.7252L67 0Z" fill="black"/>
</svg>
